/* XPM */
static char *result[] = {
/* columns rows colors chars-per-pixel */
"40 40 136 2 ",
"   c #7AC656",
".  c #7BC956",
"X  c #7EC65A",
"o  c #7ECA5A",
"O  c #7FD059",
"+  c #9ED54F",
"@  c #82CD56",
"#  c #8BCE52",
"$  c #82C65D",
"%  c #88C75F",
"&  c #82CC5A",
"*  c #89CF5E",
"=  c #84D255",
"-  c #8BD454",
";  c #8BDA55",
":  c #85D25A",
">  c #8CD45A",
",  c #87D85D",
"<  c #89DA5E",
"1  c #92D152",
"2  c #9AD352",
"3  c #90DF54",
"4  c #91D75B",
"5  c #9AD258",
"6  c #93D95C",
"7  c #ADDB4D",
"8  c #B2DC4D",
"9  c #A1D651",
"0  c #AEDA5D",
"q  c #94E354",
"w  c #98E755",
"e  c #9BEB54",
"r  c #BCE14B",
"t  c #83C762",
"y  c #8AC661",
"u  c #85CA63",
"i  c #8BCD65",
"p  c #8ACC6B",
"a  c #92C566",
"s  c #92CE64",
"d  c #96C569",
"f  c #9DC46E",
"g  c #90CF6D",
"h  c #87D062",
"j  c #8BD464",
"k  c #8CDD61",
"l  c #8DD16C",
"z  c #8FD869",
"x  c #90D364",
"c  c #99D765",
"v  c #91DF67",
"b  c #92D76E",
"n  c #9BD36F",
"m  c #91DC6A",
"M  c #8ECE70",
"N  c #9FC470",
"B  c #8FD171",
"V  c #93D273",
"C  c #98D374",
"Z  c #95DA71",
"A  c #96D37A",
"S  c #99D47C",
"D  c #9DDC7E",
"F  c #A1C36F",
"G  c #B6DD64",
"H  c #A2C372",
"J  c #A9C376",
"K  c #ADC279",
"L  c #B4C17E",
"P  c #A3D67C",
"I  c #8FE162",
"U  c #92E464",
"Y  c #BDE062",
"T  c #CBE747",
"R  c #CAE648",
"E  c #D4EA46",
"W  c #DCEC45",
"Q  c #E4EE4B",
"!  c #E5F044",
"~  c #EAF343",
"^  c #ECF249",
"/  c #F2F541",
"(  c #F8F740",
")  c #F8E567",
"_  c #F8E569",
"`  c #C7BF8B",
"'  c #CEBE92",
"]  c #D0BE91",
"[  c #9BD781",
"{  c #B4C280",
"}  c #B9C182",
"|  c #A1D781",
" . c #ABD985",
".. c #A4D989",
"X. c #A8D989",
"o. c #BADE8F",
"O. c #ACDC94",
"+. c #AFDD98",
"@. c #B4DE96",
"#. c #B0DD98",
"$. c #B4E0A1",
"%. c #B9E1A5",
"&. c #BFE4AD",
"*. c #C6C18C",
"=. c #C5E39F",
"-. c #DFE796",
";. c #DDE89F",
":. c #F8E98E",
">. c #C7E5A6",
",. c #C1E5AF",
"<. c #D5E8AB",
"1. c #CFE5B1",
"2. c #C8E7B8",
"3. c #CBE9BB",
"4. c #D1E7B5",
"5. c #D2EBBE",
"6. c #DEEDBB",
"7. c #FAEFA3",
"8. c #FAEFA8",
"9. c #FBF1AC",
"0. c #EFEFB1",
"q. c #D1EAC1",
"w. c #DCEEC6",
"e. c #DBEFCF",
"r. c #E2F0CA",
"t. c #E1F2D6",
"y. c #E3F3D8",
"u. c #EEF6DB",
"i. c #FAF7D4",
"p. c #F2F6D9",
"a. c #F8F9DF",
"s. c #ECF7E4",
"d. c #EEF8E6",
"f. c #FDFCEC",
"g. c #F9FCF4",
"h. c #FFFFFB",
/* pixels */
"@ > > 6 : . . . X p V u ; ; . . o @ . N d H $ o . . > @ . . . . . t u t b m U k ",
"@ > > > @ . . o p p i $ o = . . = @ . . $ { $ = . = > & @ . . . o t : o o h m . ",
". . . . . . u Z V p : 6 . . . . . . . . . . . . . @ > 4 @ . . o u $ V S o . X t ",
". . . . O o Z h p o . o o ..s.d.+.o . . . . o . . . @ = . . . 5 ^ 0 S S j l p o ",
". . o . , z Z z k o . . ,.u.7.7.p.2.. . . : > @ = . . . . . . 5 Q 8 G P p A t . ",
". O e   o z V U O . . . 3.g.8.8.f.q.  . . @ > 6 @ . . . . . . X s 8 ( Y S o . > ",
"O . . p z j k k O : o p i A t.y.... r.0.C > > 6 . o . . . T ! # o u 9 V $ . . = ",
"q O X X Z z k k O O u =.@.o l l o . 5.6.V @ > > . ; . . @ r E # . $ u o . . . o ",
". = q . $ O o O . . . C V . . . > . o @ . . . . . . . . . . @ . . . . = . . . . ",
". . - . . . . . . . . . . o . @ > : . . . . @ q . . @ > $ . > @ . o . . . . : I ",
". . . . . . > # . o . . = . : > 4 : . . o o o = . . . o . o @ 4 6 o . . . . ; < ",
". . . = . o . 4 > o . . w = . > > & . . > = . . . . @ . . = > > > . . . . . U < ",
"> & o = . . > 4 > . O = . = . . $ . . . . . . = @ & @ . . . = > > . o . : . O , ",
"@ > >   . . : > > . = 3 . > o . . , < o o . . o > 4 @ . . . . @ .   . . . o o . ",
". = > . . . . . . . . . @ . . . . . I I , . o * > 4 > * . . . . . . . . A y.y.u ",
". .   . o = . . . . . . > @ . . o U k I @ . . 4 > 4 6 . . . : . . & o &.u.9.9.s.",
". . .   > > .   . . . . . . . @ o < , < $ o . > > > : . . . = & > = u e.d.) _ g.",
". . > @ = . @     . 1 E + . # W + . O o > . . . o . . . . . o > 6 . . h %.h.g.O.",
". . > * > 4 @ o . . 2 ~ 7 o + / 7 . @ @ o . o . . . . q - . . = O . . . $ b B . ",
". . @ 6 > > @ @ . . .   T E @   . . o . . . o @ . . . . . . . . . . . , . . . . ",
". @ > 6 > > > . . . . . E W @ . . o . . . . = . o @ . . @ > . . . . , , .   . . ",
". . : 4 > = @ . . . . . @ @     o o . & @ . . . . o . . . . . o , O , . O . . . ",
". . . $ o   . . . . . . . . . o o 6 : > . . . @ . . $ $ . . . . , , k I O . . . ",
". . . ` J F % . . = ; . . . o . @ @ 4 > . . . . . . d *.$ . . O . I k k . , .   ",
". H F a J f y . . = - . > o . . > @ 4 4 >   @ % . { a L a . . . < k k , < .   w ",
". d d % f . L d . . . . : . . . @ @ 6 > @   a ] . y L H y X . . O < , , o .   . ",
". . . . . . f % . & : . . . . .   . @ @ . . o $ . t f } a . . . . . . . . o X   ",
"> . . o o . X u u u @ . . . @ . . . . . . . . . . . . N u . > > > @ .   o p p X ",
": . . . . o t . . X t . . . . . . . . . . . & 4 . @ . . . @ @ < 6 . . o p g u . ",
". . & p u u : l t . u j . , . . . @ . . . . . 6 @ > . . . . > 4 > . o M p h X r ",
". p w.:.1.$ A [ S   $ m , , . . . . . . . . @ @ 6 > = . . . $ > & $ i s g * . + ",
"O.[ t.i.q.p 4...V l D m U , U . . . . . . . @ > 6 > > . . . . . o t i c x o . . ",
"B o p [ C p >.S p A j I I < : . . . > = . . o = 4 > . . o . . . X u p i @ . . . ",
". . . o.>.p   $ S $ O < I , . . . @ & > @ . . . @ . .   o . @ $ X $ X . . . . . ",
". . . u u o u i t . . . . . . . .   6 > & . . . o $ . . . . X b p . o . O O . . ",
". . . . . . X . . . O . . . . . . . : @ @ . . t <.-.O.. . .   h j < : . ; = 3 = ",
": O . . . .   . . . . . . o . . . . . . . . l V i.7.t.l S . , : < I O O . . @ o ",
"I O . 8 W 1 - + . . . . 6 : . . . . . . . p #.. $.3.l ..<.l , U , I < . . . . . ",
"k , O 7 E 2 R ~ + . . . o . o 6 o . . . . . . . . P  .u x o . < , < < . . . . % ",
"I k . . # + 7 7 . . o = . . . & . . . . . > = . . X.#.o . . . o O O . . . . . ' "
};
