/* XPM */
static char *result[] = {
/* columns rows colors chars-per-pixel */
"40 40 195 2 ",
"   c black",
".  c #171717",
"X  c #323131",
"o  c #3A3A3A",
"O  c #2B2A2A",
"+  c #322E18",
"@  c #403E3E",
"#  c #394E2F",
"$  c #3D5F2E",
"%  c #3B4A35",
"&  c #3E5433",
"*  c #445D39",
"=  c #445739",
"-  c #564B31",
";  c #705C3E",
":  c #466B36",
">  c #476838",
",  c #4D7737",
"<  c #52793F",
"1  c #6E7C2D",
"2  c #646A37",
"3  c #454444",
"4  c #4D4C4C",
"5  c #504E4E",
"6  c #4A5743",
"7  c #545353",
"8  c #595656",
"9  c #5B5A5A",
"0  c #56584C",
"q  c #615E5E",
"w  c #4E6343",
"e  c #546747",
"r  c #557A45",
"t  c #5F7F51",
"y  c #627B56",
"u  c #686652",
"i  c #636262",
"p  c #696666",
"a  c #6C6B6B",
"s  c #686F66",
"d  c #716E6E",
"f  c #747373",
"g  c #797777",
"h  c #7D7B7B",
"j  c #75746F",
"k  c #91631E",
"l  c #825B20",
"z  c #817E7E",
"x  c #D74776",
"c  c #54873B",
"v  c #598B3B",
"b  c #54893B",
"n  c #5C933F",
"m  c #588543",
"M  c #5E9641",
"N  c #7F9742",
"B  c #6E8A54",
"V  c #65A546",
"C  c #6CAC4D",
"Z  c #6AA44D",
"A  c #6FB54D",
"S  c #72BA4F",
"D  c #78BB4F",
"F  c #72A858",
"G  c #74BC51",
"H  c #7ABF58",
"J  c #75AA44",
"K  c #728E64",
"L  c #7DAF66",
"P  c #79C555",
"I  c #7BC956",
"U  c #7EC65A",
"Y  c #7ECA5A",
"T  c #77C454",
"R  c #7FD059",
"E  c #918437",
"W  c #A6923C",
"Q  c #8FB43F",
"!  c #DDE03B",
"~  c #918A5E",
"^  c #A88A4C",
"/  c #80AF41",
"(  c #82AD52",
")  c #868E7E",
"_  c #81B260",
"`  c #9ED44F",
"'  c #81CD56",
"]  c #82C75C",
"[  c #82CC5B",
"{  c #88CB58",
"}  c #84D255",
"|  c #88D755",
" . c #84D25A",
".. c #8CD35A",
"X. c #87D85D",
"o. c #89DB5E",
"O. c #8CDB55",
"+. c #99D351",
"@. c #90D75B",
"#. c #93D95C",
"$. c #93D655",
"%. c #ADDA4D",
"&. c #B0DC4C",
"*. c #A8D35A",
"=. c #93E354",
"-. c #9AE955",
";. c #BAE04B",
":. c #85CB63",
">. c #8BCE65",
",. c #8ACB6B",
"<. c #85C661",
"1. c #96C568",
"2. c #91CA69",
"3. c #8CD465",
"4. c #8CDD60",
"5. c #8DD16D",
"6. c #8FD869",
"7. c #90D364",
"8. c #92D76E",
"9. c #91DB6A",
"0. c #95DB66",
"q. c #8ECD70",
"w. c #9AC976",
"e. c #8FD171",
"r. c #93D273",
"t. c #95DA71",
"y. c #96D37A",
"u. c #A1C36F",
"i. c #A2C372",
"p. c #ABC378",
"a. c #A3D67C",
"s. c #8EE262",
"d. c #92E564",
"f. c #D9EB47",
"g. c #C9E548",
"h. c #EBF245",
"j. c #F8E568",
"k. c #E57AA1",
"l. c #858282",
"z. c #8A8686",
"x. c #8D8A8A",
"c. c #918D8D",
"v. c #949587",
"b. c #959191",
"n. c #999595",
"m. c #9D9A9A",
"M. c #A29E9E",
"N. c #A89192",
"B. c #B98B8E",
"V. c #94A089",
"C. c #99BF84",
"Z. c #A5A3A3",
"A. c #A9A6A6",
"S. c #ADABAB",
"D. c #B1ADAD",
"F. c #B4B3B3",
"G. c #BCBBBB",
"H. c #B9B7B7",
"J. c #CEBE92",
"K. c #C7BF8B",
"L. c #CC9AA5",
"P. c #E8AEB8",
"I. c #9CD681",
"U. c #B4C280",
"Y. c #A7D988",
"T. c #AADA93",
"R. c #B4DE96",
"E. c #B9E2A6",
"W. c #D9CF8F",
"Q. c #DDE89F",
"!. c #C3E39E",
"~. c #C1E5AF",
"^. c #CBE9BB",
"/. c #FAEFA5",
"(. c #FBF1AC",
"). c #C2C1C1",
"_. c #CBCBCB",
"`. c #C8C6C6",
"'. c #D1CFCF",
"]. c #D4D4D4",
"[. c #D9D7D7",
"{. c #DBDADA",
"}. c #E0C0C2",
"|. c #DAEECF",
" X c #E1F2D6",
".X c #EAF5DA",
"XX c #F8F9DF",
"oX c #EDDFE0",
"OX c #E3E3E3",
"+X c #EDEDED",
"@X c #EDF7E5",
"#X c #FCFCEE",
"$X c #F4F4F4",
"%X c #FFFEFE",
"&X c #F9FCF4",
/* pixels */
"' ..o.#...I I P I ,.r.:.O.O.I I Y ' I w.1.p.] I I I ..' I I I I Y U ,.:.6.6.d.4.",
"' ......Y I I Y ,.,.,.[ ' ' I I  .' I I [ p.[ } I ' ..' ' I I I U <.:.Y I 3.9.I ",
"I I I I I I [ t.r.,.:.#.I I I I I I I I I P P I I ' ..@.' P I U <.U q.y.Y I P <.",
"I I I I R Y t.3.>.Y I I Y Y.@X@XC.C I I I Y I I I I ' ..' I P #.h.*.L w.,.6.,.Y ",
"I I Y I  .6.t.6.s.Y I I ~..X/./.q b.Z P P } ..' Y I I I Y I I +.f.K z B ,.y.] I ",
"I } -.P Y 9.t.9.R P I I ^.#X(./.j _.A.a * v ] #.Y I I I I V c 6 f _.S./ y.] I ..",
"} I I :.6.3.4.4.Y | Y ,.>.y. X XK F._._.m.9 6 * * = w & & 7 f H._._.n._ ] I I  .",
"=.Y P :.r.6.4.4.R R :.!.R.Y 5.5.G f _._._.n.d h x.b.S.g z b._._._._.e Y I I I Y ",
"I R =.I I ' Y R I I I y.r.I P Y ..y _.H.Z.b.b.z x.l.M.g b.n.Z.F.).A.Z [ I I I I ",
"I Y | I I I I I I I I I I I ' Y ..] 8 b.A.m.c.c.z m.x.z c.b.m.Z.z.m P T I I  .s.",
"I I I I I I ..{ I Y I I } I  .....D 7 c.M.Z.g S.z.g z M.z z.S.n.g v I P Y R X.X.",
"I I I } Y I ' ....' I I -.} I ....v z Z.Z.c.l.D.m.z x.A.n.z.n.Z.m.% T I I I s.4.",
"..{ ' } I I ..@...I R } I } I I P * l.c.i l k z M.b.b.A.u k - z c.o G I } P R X.",
"' ..o.P I I ..@...I } =.I ..I I S o M.`.m.^ u E z.b.M.8 ~ W ; F.G.h # I I :.Y I ",
"I } ..P I I I I I I P P ' Y I I G o z m.D.z.o + f D.M.3 = - A.A.m.h # I y. X X:.",
"I I I P I  .P I I I I I ..' I I G o x.h g n.S.q l._.G.q c.A.c.z g f & ~..X(.(.@X",
"I P I I ..| I I I P I ' I P P { S o Z.c.x.b.b.c.B.L.L.N.c.b.c.c.x.s r |.@Xj.j.&X",
"I '  .' } I { I I P $.g.` P +.f.` > g h l.b.b.D.P.x k.}.b.b.c.c.g o S :.E.%X&XT.",
"I P | ....@.' I I I ` h.%.P ` ! / $ 5 d h h Z.%X%XB.oX%X{.m.l.h z * I I Y r.e.I ",
"I ' ] #.....' Y I ' T S 1 2 4 4 5 7 7 4 4 9 g [.[.m.n.+XS.d a z 3 I I R I I I I ",
"I ' ..#.......Y D , o 3 j z.b.x.l.z.f i i g f 3 5 x.g 3 3 x.S.$Xa I 4.4.I I I I ",
"I Y  .....{ ' T = i x.z.f z.b.b.h c.z z x.S.+XOXOXOXOXOXOX$X%X).Z I R Y 4.I T I ",
"I I I ] U P P * z.l.l.b.b.z x.b.l.z h z.b.].%X%X%X%X%X%X%X%X%XOXB 4.4.s.R I I I ",
"I I I K.p.i.= z b.b.z.l.b.b.z z.z.z z h m.%X%X%X%X%X%X%X%X%X%X%X%XM 4.4.Y R I P ",
"I i.i.1.p.0 z z c.z z d a b.x.g z.l.c.d 9 OX&X%X%X%X%X%X%X%X%X%X%XM 4.X.o.I P -.",
"I 1.1.[ ( d b.b.f 7 3 3 @ @ z z x.b.d 8 b.b.D.{.%X%X%X%X%X%X%X%X%Xn o.X.' P P I ",
"I I I P e b.b.b.f h x.z l.x.d q d b.5 d b.x.b.n.S.+X$X%X%X%X%X$XOXb I I I U U I ",
"..I I A a b.x.g z z.h c.b.).+Xp 8 b.@ l.l.z g n.b.M.{.OX%X%X%X).b.v I I Y ,.,.P ",
"' I H @ b.b.b.z.z h b.b.D.%X%XOXX . d z h c.b.c.b.z.[.OXOXOXH.b.b.c I Y ,.,.,.I ",
"Y P ] = z.b.z z l.c.c.D.$X%X%X$Xg   x.l.f p z c.g a ).OX]._.n.c.x.c ] ,.q.3.I ;.",
"I ,.v.z.l.l.c.b.z.h m.$X%X%X&XOXZ.  z.z a o O i i i G._.F.c.h h z c 7.2.5.{ I ` ",
"T.I.) q c.l.l.l.l.h A.OX$X%XOXOXb.  z l.h c.m.5 9 n._.H.a p q 8 X <.,.0.7.I I I ",
"r.P 7 3 = f z z z z b.M.[.oXOX_.y Z 8 K x.[.%X_.5 M._.c.i i 9 7 < :.,.>. .I I I ",
"I & j b.z.@ 3 7 7 7 7 5 a @ i a i 9 : . b.$X%X%X{.f d o o o o w H U U P P I I P ",
"P > 9 h x.b.m.H.F.M.x.oX'.H.+X$XS._.S.F.F.n.+X%X+Xi Z.H.F.M.l.a F I Y I } Y I I ",
"P P > 3 p g n.OXG.z.`._.l.[.H.3 O i c.m.+XOXz $X$Xi ).OX[.m.o w :.o.} I O.} O.| ",
" .R I C > 3 4 0 5 s < , : r m P P V : , b.m.y m x.W.V.t t m R R o.s.R R I I Y Y ",
"s.R I &.f./ J J V C I I 4.:.I I P I P P Z F T.Y E.^.6.Y.Q.e.X.s.o.4.X.I I I T T ",
"4.X.R &.f.+.g.h.` I I I Y Y I 7.Y I I I P P I I T y.Y.:.5.Y I 4.o.4.| I I I I <.",
"s.o.I I ..` %.&.I I I | I I I ' Y I I I I ..} I I Y.R.Y P P I R R R I I Y P I W."
};
