/* XPM */
static char *result[] = {
/* columns rows colors chars-per-pixel */
"40 40 215 2 ",
"   c #3F1804",
".  c #391505",
"X  c #2C2F2F",
"o  c #343C3F",
"O  c #34312C",
"+  c #362E1F",
"@  c #411804",
"#  c #4B1C06",
"$  c #5A2309",
"%  c #47291B",
"&  c #52250F",
"*  c #68280A",
"=  c #722903",
"-  c #7C2F0A",
";  c #762D09",
":  c #7C300A",
">  c #7E3615",
",  c #7C3715",
"<  c #692D13",
"1  c #45362F",
"2  c #703E24",
"3  c #44413D",
"4  c #59493E",
"5  c #7A4B30",
"6  c #323B40",
"7  c #2F3C41",
"8  c #2E484A",
"9  c #285A5B",
"0  c #3E595A",
"q  c #314A4C",
"w  c #276161",
"e  c #286161",
"r  c #396A6A",
"t  c #435050",
"y  c #755849",
"u  c #55767B",
"i  c #4B676B",
"p  c #677A78",
"a  c #72736C",
"s  c #7B6451",
"d  c #823613",
"f  c #8C3E1C",
"g  c #863A18",
"h  c #943F1C",
"j  c #83330F",
"k  c #8D401D",
"l  c #94431C",
"z  c #9D481E",
"x  c #9C451E",
"c  c #A1491E",
"v  c #884323",
"b  c #9D4D26",
"n  c #9E4E2A",
"m  c #964824",
"M  c #8D5234",
"N  c #A24C26",
"B  c #A34E28",
"V  c #A2522F",
"C  c #AC552E",
"Z  c #AA5027",
"A  c #BE5D2E",
"S  c #B3572D",
"D  c #A15230",
"F  c #AB5A36",
"G  c #AB5A38",
"H  c #A75834",
"J  c #B35D36",
"K  c #BD5F31",
"L  c #B25A35",
"P  c #BD6135",
"I  c #BA623B",
"U  c #C05C2F",
"Y  c #C45F30",
"T  c #C36233",
"R  c #CA6538",
"E  c #D46936",
"W  c #D56E3C",
"Q  c #D86F3C",
"!  c #D4703F",
"~  c #DC713E",
"^  c #C3602E",
"/  c #90674E",
"(  c #B76544",
")  c #B96644",
"_  c #BC6946",
"`  c #B76B4C",
"'  c #BB6948",
"]  c #B76841",
"[  c #B37157",
"{  c #AF6A4D",
"}  c #C46B46",
"|  c #CB6D46",
" . c #C46C48",
".. c #CC6E49",
"X. c #D36F45",
"o. c #CB7046",
"O. c #C3714B",
"+. c #D67345",
"@. c #D97447",
"#. c #C37655",
"$. c #E67C4A",
"%. c #E77C47",
"&. c #C07C61",
"*. c #538A74",
"=. c #6A847D",
"-. c #7DAA68",
";. c #7AC656",
":. c #7BC956",
">. c #7ECA5A",
",. c #7EC65A",
"<. c #7FD059",
"1. c #BE8164",
"2. c #86BD68",
"3. c #E28657",
"4. c #E3814C",
"5. c #C18268",
"6. c #81CD56",
"7. c #82CC5B",
"8. c #87C95A",
"9. c #83D256",
"0. c #84D35B",
"q. c #8BD45A",
"w. c #87D85D",
"e. c #89DA5E",
"r. c #8AD955",
"t. c #94D65B",
"y. c #9FD64F",
"u. c #B2DC4D",
"i. c #A8D858",
"p. c #95E455",
"a. c #BAE04B",
"s. c #85CB63",
"d. c #8BCD65",
"f. c #8BCC6B",
"g. c #87C761",
"h. c #94C968",
"j. c #8CDD61",
"k. c #8CD466",
"l. c #92D869",
"z. c #8CC771",
"x. c #93D172",
"c. c #95DA71",
"v. c #97D37A",
"b. c #91CF75",
"n. c #A8C375",
"m. c #ACD06A",
"M. c #8FE262",
"N. c #93E564",
"B. c #BDE062",
"V. c #DAEC46",
"C. c #EDF247",
"Z. c #F8E568",
"A. c #5E7E85",
"S. c #627E88",
"D. c #368E8E",
"F. c #38A09F",
"G. c #3DB4B4",
"H. c #3BB9BA",
"J. c #3CB8B8",
"K. c #4E8B8D",
"L. c #5A868C",
"P. c #568F94",
"I. c #469C97",
"U. c #5A979C",
"Y. c #668387",
"T. c #658C93",
"R. c #6E959D",
"E. c #679999",
"W. c #729399",
"Q. c #569FA5",
"!. c #6C9BA2",
"~. c #6B98A2",
"^. c #45ADAF",
"/. c #56A6A9",
"(. c #55AEB3",
"). c #58B6BA",
"_. c #4AB4B7",
"`. c #68A4AC",
"'. c #66ACB4",
"]. c #68A9B0",
"[. c #63B2B6",
"{. c #63B3BA",
"}. c #60B9BE",
"|. c #5FBDC4",
" X c #60BDC1",
".X c #48C7C9",
"XX c #5DC2C5",
"oX c #5CC7CB",
"OX c #5DCCD1",
"+X c #58D5D7",
"@X c #45D0D1",
"#X c #61C4C9",
"$X c #54DDE1",
"%X c #53E2E1",
"&X c #9F9F9F",
"*X c #97A9A9",
"=X c #B7BAB6",
"-X c #ACB2AF",
";X c #CBBF8F",
":X c #9BD681",
">X c #AAD88E",
",X c #A9E58A",
"<X c #B5DDA5",
"1X c #BDE5AA",
"2X c #C7E29F",
"3X c #CBE5B8",
"4X c #FBF1AE",
"5X c #F8E98E",
"6X c #C6CACA",
"7X c #D8ECC7",
"8X c #DEF2D3",
"9X c #E5F3D8",
"0X c #F8F8DA",
"qX c #FDFEF8",
"wX c #E8F3E2",
/* pixels */
"6.q.q.t.w.:.:.:.>.f.x.s.r.p.:X6X=Xr 9 9 e 9 *X=Xz.:.t.6.:.:.:.:.:.s.s.s.l.l.N.j.",
"6.q.q.q.6.:.:.>.s.b.f.8.8X6Xp G.G.$X{.).{.+X.XG.K.2.q.6.>.:.:.:.>.s.7.>.:.k.c.>.",
":.:.:.:.:.:.s.c.b.z.3X-XA.F.+X!.R.'.|.~.~.+XE.R.}.@X*.q.6.;.:.:.s.8.v.v.>.:.,.>.",
":.:.:.:.<.>.c.d.f.wX*X^.(.'.XX!.Y.u o X X 0 Y.T.}.{.[._.E.b.;.t.C.i.v.:Xs.l.f.>.",
":.:.:.:.0.l.c.k.1X*X^.OX`.E.i r . # = = = * . + r T.~.|.XXT.>Xt.C.u.B.x.f.v.s.:.",
":.0.p.;.>.N.c.,X-X/.].`.(.0 % $ - d C n n f ; ; % 1 K.].!.(.E.7.h.u.C.B.v.,.:.q.",
"<.:.:.f.c.k.j.-XI.|.!.T.t $ , v I x +._ _ D ^ T g * 1 u ~.!..X2.;.s.i.x.7.:.:.0.",
"p.<.:.>.x.M.,Xu (.|.U.1 = S I _ ..N +._ ) D E o.| L d % A.|.).Q.z.,.g.,.:.:.:.:.",
":.9.p.:.,.s.6XD.'.R.t < f ~ | } ..c @._ _ D E o.X.X.N g + R.~.).p <X:.>.;.:.:.:.",
":.:.r.:.;.3XY.OX`.L.% k b X.| } } z @...} D E | | | B U $ t ~.{.D.6X:.;.:.:.<.M.",
":.:.:.:.:.-X^.[.|.i $ G b W } | | x +.X.} D E o.} | N W g 1 P.|.XXp :.:.:.<.w.j.",
":.:.:.6.:.&XG.R.T.+ m ( b W } X._ z @.+.} D E | ' | N W H & q ~.oXi :.:.:.:.p.j.",
"q.6.6.9.:.W._.!.i % n ' b W } | _ x @.X.} V E | ' | Z W G < O T.{.K.9.:.9.:.<.j.",
">.t.q.;.:.9 +X+X9 , | ) b +.' _ _ b @.| | D E | ' X.Z W ' n @ (.OXH.:.:.:.>.>.:.",
":.9.q.;.:.w {.!.o d ..( m W ( ( ] x @.I } n R R ) } N X.( D @ Y.!.G.:.:.v.9X8Xs.",
":.:.:.:.:.w [.~.4 ; x f j l f f f j x l l g h h f f d h f g $ Y.R.J.>.1XwX4X4XwX",
":.:.:.:.t.w oXp R $.$.3.$.$.4.3.$.$.$.3.3.%.%.$.3.4.$.%.3.4.%.M  XG.s.8X0XZ.Z.qX",
":.6.9.6.r.w oXp T _ ' [ ( ` ` [ ) ) ) ` ` ) ) ) ` ` ) ( [ ' ] 5 {.J.,.s.1XqXqX>X",
";.:.q.q.9.w [.R.4 = = = = = = = = = = = = = = = = = = = = = $ Y.R.G.:.:.:.x.b.:.",
":.:.6.t.q.w }.`.7 , I G l T J F F h R G F N S I F F m A J m   L.`.J.:.0.:.:.:.:.",
":.9.q.t.q.e +XOX8 , +.` b ! | _ ) b %.} ' S E } ' ) N ~ ..C @ (.#XH.j.w.:.:.:.:.",
":.>.0.q.q.e {.!.7 , ` / m ! } } _ x @.| | C E o.' ' n ~ | C   A.R.G.w.:.0.:.;.:.",
":.:.:.8.7.9 {.R.o d / p 5 E | | _ z +.o.X.V E | | ' n ~ ..C   A.~.G.j.M.0.:.:.:.",
":.:.:.;Xn.e %X+X9 d } s m W _ | | z +.} X.V E | | } n ~ | C @ _.+XH.M.j.:.<.:.:.",
":.n.n.g.n.w [.R.6 > o.y n ! _ _ } b +.} +.D E | } } b ~ X.C @ S.R.G.e.e.e.:.;.p.",
";.h.h.8.n.9 [.R.6 , o.y b ! _ } | z +.} X.D E o.} ' N Q | V   S.R.G.e.0.6.:.;.;.",
":.:.:.:.:.w +X}.q g O.y n W _ } | c @.} X.D E ..| } N W | C @ Q.#XJ.:.:.:.7.,.;.",
"0.:.:.>.6.w oX'.8 g / a 5 E ( ` | c +.} X.V E o.X.X.b W | C @ P.'.G.:.:.:.f.f.;.",
"9.:.:.:.:.w [.R.6 g { s v ! _ ` | c +.} } D E +.o.| b ! } C   L.R.^.:.:.f.f.f.6.",
":.:.8.k.s.e XX'.8 , o.{ b ! _ _ | x +._ _ D E +.| | b W _ V @ P.].G.7.b.f.d.;.u.",
":.f.7X5X3Xw +X#Xq , +._ b ! _ _ | c +.` ) D E +.} | B ! _ Z @ Q.#XJ.k.h.x.q.:.y.",
">X:X9X0X3X9 [.R.3 , I F k P F G J l T F F b A T L L x K G m # S.R.^.d.l.k.;.:.:.",
"x.>.f.:Xv.e }.=.H P U P A U K P A K U P P U U U P P U U P K A s `.G.f.q.6.:.:.:.",
":.:.:.<X2Xw +X=.R o.O.5. .} #.5.} } } #.#.} O. .#.#.O.} &.O. .5 OXH.,.;.:.:.:.:.",
":.:.:.q.d.w [.Y.M k k k k l k k k l k f k k k k f k k k f f g a R.G.:.:.9.6.:.:.",
":.:.:.:.6.e [.R.3 * : : ; - : : - ; : - : ; : : : : = j - - # S.R.J.0.:.r.9.r.r.",
"9.<.:.:.;.w +X#X8 g @.| b ! _ o.' x @.| ..D E +.| | n ! _ V @ /.oXG.0.:.:.:.6.6.",
"M.<.:.u.V.w XX].8 g @.| b X.} | ' c +.....D E o.| | N W _ V   P.'.G.w.:.:.:.:.:.",
"j.0.0.u.V.w {.R.7 , +.} Z ! | _ ' m %.| ..D E O._ _ N W _ D @ A.R.^.w.:.:.:.:.g.",
"M.e.:.>.9.i K.u X < I F k T G H H g R L G b S J F F v K F v . i u I.:.:.>.:.:.;X"
};
