/* XPM */
static char *result[] = {
/* columns rows colors chars-per-pixel */
"40 40 131 2 ",
"   c #CFD0D2",
".  c #D1D2D4",
"X  c #D1D2D3",
"o  c #D2D3D5",
"O  c #4D4C4C",
"+  c #464646",
"@  c #C0C1C2",
"#  c #D0D1D3",
"$  c #898983",
"%  c #44402A",
"&  c #EBDE7F",
"*  c #6D673B",
"=  c #B7B8BA",
"-  c #7C7C7A",
";  c #B1A760",
":  c #FFF08A",
">  c #E1D47A",
",  c #75735E",
"<  c #C6C7C9",
"1  c #84847F",
"2  c #BDB369",
"3  c #C9BE6D",
"4  c #787879",
"5  c #736D3E",
"6  c #FDDE7C",
"7  c #E0D379",
"8  c #767360",
"9  c #C7C8CA",
"0  c #5B594E",
"q  c #DFD278",
"w  c #FEE883",
"e  c #F79C4A",
"r  c #FEE782",
"t  c #5F5E51",
"y  c #3F3D2F",
"u  c #FFF089",
"i  c #F48236",
"p  c #F48337",
"a  c #FEE480",
"s  c #5D5D5D",
"d  c #F16420",
"f  c #F48438",
"g  c #F8A752",
"h  c #E0D378",
"j  c #B0B1B1",
"k  c #7C7543",
"l  c #F69746",
"z  c #F16521",
"x  c #F16520",
"c  c #F16722",
"v  c #F9B75E",
"b  c #494633",
"n  c #CBCCCE",
"m  c #C6C7C8",
"M  c #76735E",
"N  c #E2D278",
"B  c #F79947",
"V  c #AD6C32",
"C  c #807F7A",
"Z  c #ACACAE",
"A  c #2C2925",
"S  c #332E28",
"D  c #2E261B",
"F  c #3D391A",
"G  c #453C1A",
"H  c #442E0F",
"J  c #2E200C",
"K  c #372F25",
"L  c #373128",
"P  c #2D2B29",
"I  c #55483B",
"U  c #856039",
"Y  c #B4813F",
"T  c #DDBF43",
"R  c #E9D044",
"E  c #E8D044",
"W  c #CBA341",
"Q  c #8A6333",
"!  c #5C5651",
"~  c #B4B5B6",
"^  c #362D24",
"/  c #4A3829",
"(  c #695033",
")  c #6D5333",
"_  c #624B32",
"`  c #3E2F23",
"'  c #58524D",
"]  c #281D13",
"[  c #57422B",
"{  c #7B6C35",
"}  c #7D7135",
"|  c #776234",
" . c #553F26",
".. c #1A130B",
"X. c #A5A6A7",
"o. c #AAABAC",
"O. c #473829",
"+. c #91683B",
"@. c #D2A941",
"#. c #E0B743",
"$. c #DFB843",
"%. c #DFB743",
"&. c #BC903F",
"*. c #926838",
"=. c #585049",
"-. c #C3C4C5",
";. c #B4B4B5",
":. c #35312E",
">. c #1C1710",
",. c #2C2012",
"<. c #271C10",
"1. c #26221D",
"2. c #474441",
"3. c #CACBCD",
"4. c #848483",
"5. c #644828",
"6. c #AF7D3F",
"7. c #514131",
"8. c #A7A8A9",
"9. c #C9CACC",
"0. c #463317",
"q. c #D39842",
"w. c #3A3733",
"e. c #463216",
"r. c #D39741",
"t. c #3A3732",
"y. c #463316",
"u. c #3B3833",
"i. c #807B75",
"p. c #3A2A14",
"a. c #A5A5A6",
/* pixels */
"  . . . . . . . . . . . . . . . . . . . . . . . . . . . . . . . . . . . . . .   ",
"X o o o o o o o o o o o o o o o o o o o o o o o o o o o o o o o o o o o o o o . ",
"X o o o o o o o o o o o o o o o o o o o o o o o o o o o o o o o o o o o o o o . ",
"X o o o o o o o o o o o o o o o o o o o o o o o o o o o o o o o o o o o o o o . ",
"X o o o o o o o o o o o o o o o o o o o o o o o o o o o o o o o o o o o o o o . ",
"X o o o o o o o o o o o o o o o o o o o o o o o o o o o o o o o o o o o o o o . ",
"X o o o o o o o o o o o o o o o o o o o o o o o o o o o o o o o o o o o o o o . ",
"X o o o o o o o o o o o o o o o o o o o o O + @ o o o o o o o o o o o o o o o . ",
"X o o o o o o o o o o o o o o o o o # $ % & * = o o o o o o o o o o o o o o o . ",
"X o o o o o o o o o o o o o o o o o - ; : > , < o o o o o o o o o o o o o o o . ",
"X o o o o o o o o o o o o o o o   1 2 : : 3 4 o o o o o o o o o o o o o o o o . ",
"X o o o o o o o o o o o o o o o = 5 : 6 6 7 8 9 o o o o o o o o o o o o o o o . ",
"X o o o o o o o o o o o o o o o 0 q w e r : q t   o o o o o o o o o o o o o o . ",
"X o o o o o o o o o o o o o o o y u i p a : u 7 s o o o o o o o o o o o o o o . ",
"X o o o o o o o o o o o o o o o y u i d f g u h s o o o o o o o o o o o o o o . ",
"X o o o o o o o o o o o o o o o j k l z x c v b n o o o o o o o o o o o o o o . ",
"X o o o o o o o o o o o o o o o m M N B x x V C o o o o o o o o o o o o o o o . ",
"X o o o o o o o o o o o o o Z A S D F G H H J K L P o o o o o o o o o o o o o . ",
"X o o o o o o o o o o o o o = I U Y T R E E W Y Q ! o o o o o o o o o o o o o . ",
"X o o o o o o o o o o o o o o ~ ^ / ( ) ) ) _ ` ' < o o o o o o o o o o o o o . ",
"X o o o o o o o o o o o o o o s ] [ { } } } |  ...X.o o o o o o o o o o o o o . ",
"X o o o o o o o o o o o o o o o.O.+.@.#.$.%.&.*.=.-.o o o o o o o o o o o o o . ",
"X o o o o o o o o o o o o o o o ;.:.>.,.,.<.1.2.3.o o o o o o o o o o o o o o . ",
"X o o o o o o o o o o o o o o o o o 4.5.6.7.8.o o o o o o o o o o o o o o o o . ",
"X o o o o o o o o o o o o o o o o o 9.0.q.w.o o o o o o o o o o o o o o o o o . ",
"X o o o o o o o o o o o o o o o o o 9.0.q.w.o o o o o o o o o o o o o o o o o . ",
"X o o o o o o o o o o o o o o o o o 9.e.r.t.o o o o o o o o o o o o o o o o o . ",
"X o o o o o o o o o o o o o o o o o 9.e.r.t.o o o o o o o o o o o o o o o o o . ",
"X o o o o o o o o o o o o o o o o o 9.e.r.t.o o o o o o o o o o o o o o o o o . ",
"X o o o o o o o o o o o o o o o o o 9.y.q.t.o o o o o o o o o o o o o o o o o . ",
"X o o o o o o o o o o o o o o o o o 9.0.q.w.o o o o o o o o o o o o o o o o o . ",
"X o o o o o o o o o o o o o o o o o 9.0.q.u.o o o o o o o o o o o o o o o o o . ",
"X o o o o o o o o o o o o o o o o o 9.0.q.t.o o o o o o o o o o o o o o o o o . ",
"X o o o o o o o o o o o o o o o o o # i.p.a.o o o o o o o o o o o o o o o o o . ",
"X o o o o o o o o o o o o o o o o o o o o o o o o o o o o o o o o o o o o o o . ",
"X o o o o o o o o o o o o o o o o o o o o o o o o o o o o o o o o o o o o o o . ",
"X o o o o o o o o o o o o o o o o o o o o o o o o o o o o o o o o o o o o o o . ",
"X o o o o o o o o o o o o o o o o o o o o o o o o o o o o o o o o o o o o o o . ",
"X o o o o o o o o o o o o o o o o o o o o o o o o o o o o o o o o o o o o o o . ",
"  . . . . . . . . . . . . . . . . . . . . . . . . . . . . . . . . . . . . . . # "
};
