/* XPM */
static char *result[] = {
/* columns rows colors chars-per-pixel */
"40 40 242 2 ",
"   c #281C1D",
".  c #291E22",
"X  c #371E26",
"o  c #2A2429",
"O  c #3C2225",
"+  c #372828",
"@  c #282B34",
"#  c #28323D",
"$  c #2E3130",
"%  c #333A3C",
"&  c #3E3D3F",
"*  c #373538",
"=  c #37312C",
"-  c #31201D",
";  c #452A1F",
":  c #462A25",
">  c #493427",
",  c #573528",
"<  c #492A34",
"1  c #552B38",
"2  c #483839",
"3  c #563937",
"4  c #572D28",
"5  c #663926",
"6  c #773B2B",
"7  c #663839",
"8  c #733431",
"9  c #7D3833",
"0  c #753C36",
"q  c #632F2D",
"w  c #461E35",
"e  c #3B4A36",
"r  c #3B683D",
"t  c #5A4439",
"y  c #4F5033",
"u  c #774527",
"i  c #694835",
"p  c #724638",
"a  c #7A543A",
"s  c #674F34",
"d  c #4C7237",
"f  c #4D6A37",
"g  c #70753A",
"h  c #283440",
"j  c #3D3B50",
"k  c #413F52",
"l  c #4D3744",
"z  c #6C3B43",
"x  c #713E45",
"c  c #732453",
"v  c #2E4C49",
"b  c #2E524E",
"n  c #395548",
"m  c #2F5854",
"M  c #2F5652",
"N  c #315B54",
"B  c #3D5A53",
"V  c #384850",
"C  c #366652",
"Z  c #3B6D4C",
"A  c #554746",
"S  c #475746",
"D  c #514F56",
"F  c #7C464B",
"G  c #71524B",
"H  c #437C4C",
"J  c #456C4D",
"K  c #766C49",
"L  c #757647",
"P  c #69714B",
"I  c #545879",
"U  c #4D4D68",
"Y  c #696368",
"T  c #76747B",
"R  c #84422D",
"E  c #8B4C29",
"W  c #92532B",
"Q  c #9A552B",
"!  c #984831",
"~  c #895838",
"^  c #945736",
"/  c #8A4E2F",
"(  c #A54E2E",
")  c #A84F2F",
"_  c #AB512F",
"`  c #A85C2A",
"'  c #A54D33",
"]  c #A85533",
"[  c #B75B34",
"{  c #9D6134",
"}  c #8B6F37",
"|  c #B5642B",
" . c #BD6235",
".. c #AE6F37",
"X. c #C76C2D",
"o. c #C87836",
"O. c #DF7C34",
"+. c #CC6B33",
"@. c #E37B2F",
"#. c #E87C35",
"$. c #8D2E5B",
"%. c #9C2A70",
"&. c #9E2E6F",
"*. c #A3366E",
"=. c #B23C67",
"-. c #AC3670",
";. c #CB3E74",
":. c #C73975",
">. c #D33B77",
",. c #845546",
"<. c #894B54",
"1. c #9B5958",
"2. c #95564D",
"3. c #A65058",
"4. c #986848",
"5. c #867747",
"6. c #8F644C",
"7. c #A7754A",
"8. c #A86856",
"9. c #B77854",
"0. c #AD694E",
"q. c #B44669",
"w. c #BA556C",
"e. c #907B7B",
"r. c #B96964",
"t. c #BE756C",
"y. c #DD515E",
"u. c #C95257",
"i. c #C87852",
"p. c #E56E4E",
"a. c #CD4766",
"s. c #D65074",
"d. c #ED4C76",
"f. c #E34676",
"g. c #F44C78",
"h. c #F34D76",
"j. c #FD5377",
"k. c #F75076",
"l. c #EE566F",
"z. c #CD706C",
"x. c #F46973",
"c. c #54893B",
"v. c #5A993D",
"b. c #4D843D",
"n. c #6D913B",
"m. c #63AB3F",
"M. c #65A43E",
"N. c #5FA33D",
"B. c #4A8848",
"V. c #568845",
"C. c #4E9147",
"Z. c #5A9C43",
"A. c #589345",
"S. c #6E9049",
"D. c #5DA342",
"F. c #61A840",
"G. c #6DA343",
"H. c #74A941",
"J. c #688F6D",
"K. c #7BC956",
"L. c #7ECA5A",
"P. c #7CC556",
"I. c #8A903B",
"U. c #AA9B3E",
"Y. c #D0913D",
"T. c #FA8733",
"R. c #E78F3A",
"E. c #EAA83F",
"W. c #DBA03F",
"Q. c #8B8647",
"!. c #B59648",
"~. c #AF8C4A",
"^. c #9AB94E",
"/. c #96BA53",
"(. c #8FAF45",
"). c #B2AC48",
"_. c #BE8271",
"`. c #83B461",
"'. c #C8885B",
"]. c #CE9644",
"[. c #E89342",
"{. c #CEAB42",
"}. c #EBB341",
"|. c #EEAC41",
" X c #D88C66",
".X c #DB9264",
"XX c #CB8E71",
"oX c #E1876F",
"OX c #E79969",
"+X c #F4926F",
"@X c #FDAD6F",
"#X c #F4A46B",
"$X c #F1A36F",
"%X c #82CC56",
"&X c #82CC5B",
"*X c #86C656",
"=X c #93C554",
"-X c #84D15A",
";X c #8CD45A",
":X c #87D658",
">X c #92D658",
",X c #9FD64F",
"<X c #96E554",
"1X c #86CB64",
"2X c #8BCC6A",
"3X c #89C962",
"4X c #94C668",
"5X c #8CDD61",
"6X c #8CD566",
"7X c #92DB69",
"8X c #96D674",
"9X c #91C876",
"0X c #A5C26F",
"qX c #91E363",
"wX c #BAE04B",
"eX c #5D648B",
"rX c #6D7294",
"tX c #666C91",
"yX c #7B81A5",
"uX c #94948E",
"iX c #868AAA",
"pX c #9698AC",
"aX c #B1B1B8",
"sX c #A5979E",
"dX c #D6B995",
"fX c #EFB58B",
"gX c #98CC85",
"hX c #AAD98B",
"jX c #A2C0A3",
"kX c #F0C89A",
"lX c #E4C7AE",
"zX c #DBE4A8",
"xX c #B4B7C8",
"cX c #ACAFC7",
"vX c #B2C0C1",
"bX c #C9CAD7",
"nX c #CCCDD9",
"mX c #D7ECC4",
"MX c #F3EBCA",
"NX c #DCDCE5",
"BX c #D6D7E2",
"VX c #ECF1EA",
/* pixels */
"%X;X;X5X;XK.K.K.L.2X8X1X:X>XK.K.L.%XK.0X4X0X3XK.K.L.>X:XP.K.K.K.P.L.1X1X7X7XqX5X",
"%X;X;X;X%XK.K.L.1X9X2X&XK.K.K.K.-X%X*XK./.~.K K K K K K K K K K 6.o.R./.L.1X7XP.",
"K.K.K.K.K.K.&X8X8X1X3X>XK.K.K.(.R.5.K L S.S.S.S.!.!.!.!.~.~.!.!.~.].#.T.).*XL.1X",
"K.K.K.K.L.L.7X6X2XL.K.*X%XhXdXg H Z.D.D.M.).{.}.}.|.[.i.w.q.q.=.q.=.=.=.=.u.4XL.",
"K.K.L.K.5X6X8X6X5XL.K.).~.P V.D.M.M.m.(.).E.|.|.[.#.j.l.l.h.d.h.g.d.d.d.f.y.&XK.",
"K.-X<XK.L.7X8X7XK.P.).I.A.F.F.m.m.m.m.{.}.E.[.p.j.j.j.j.j.j.j.j.j.k.f.>.y.T.P.:X",
"L.K.K.1X7X6X5X5X%XY.Q.Z.N.m.m.m.m.M.{.E.E.R.p.k.k.j.j.j.j.j.j.j.j.j.k.f.a.#.K.:X",
"<XL.K.L.8X5X5X5X^.S.v.m.m.m.m.D.A.L Y.Y.R.l.k.g.f.f.g.j.j.j.j.j.j.j.g.g.d.a./.K.",
"L.L.<XK.P.K.K.^.5.A.D.m.m.D.C.B.J ! ) [ y.j.j.k.s.a.s.s.s.;.;.;.a.:.:.f.k.g.t.K.",
"K.K.:XK.K.K.K.~.n.D.F.Z.C.Z C N D ' ) 3.a.g.j.x.+XOXOXz.q.%.%.%.&.*.*.q.:.;.q.qX",
"K.K.K.K.K.K.;Xg C.C.H Z N m m m n ^ ' $.&.-.s.9.i i 4.OXOXoXoXoXoXz.2.< < < `.:X",
"K.K.K.:XK.K.*Xi r C N m m m M b $ : 4 1 $.-.z.8.o . + 3 ,..X#X@X.X4.>   . 4 >X5X",
":X-X%X%XK.K.>Xu e v b M M M m b * 9.'.'.w.*.z.OXXXrXo   . 3 6.i.6.+ + i 7.5 *X;X",
"%X>X;XK.K.K.;XY.u = = % v M b m V 2 ,.8.z.z.z.$XfXaXT = + F 1.XXuXD + a 9.5 =X&X",
"K.%X:XK.K.K.K.^.T.T.T.` > ; = e b b = F XXz.z.$XkXMXaXt A F 1.dXdX_.t 6.9.5 kX7X",
"K.K.K.K.K.-XK.K.L.K.P.K.>X).@.5 , % + <.z.x.g.x.fXMXMXMXlXz.8.t.dXMXMXkX7.5 [.VX",
"K.K.K.K.;X;XP.P.P.P.*X*X^.o.+.X.X.4 X c $.-.f.x.OX@X$XoX9.'.OX@X@X@X@XOX7.5 [.VX",
"K.L.:X-X-XL.%X^.o.X. .[ _ ! ! ! ! R q 1 < l $.=.2.OX$X'.4.4.7..X@X@XOX8.z 7 lXhX",
"K.K.:X;X>XW.X.[ ' ! ! ! ( ) _ _ ) ) ! y Z n l 1 7 i 4..X@XOX'..X X0.p > X 7 4XP.",
"K.L.L.).] ( ' ' ( ( _ _ _ ) _ ( _ ' ^ n.A.Z v D F F z 3 i i i s p W | ` | +.^.P.",
"=X^.Y.0.] ! _ _ _ _ ( ( ( ( ( ( ( / g M.F.B.C J D <.<.A $ > W | X.X.| u F e.P.L.",
": 7 0.#XOX ._ _ ( ' R 5 ; O ; y n.G.m.m.F.F.C.Z C D G S v , X.T.T.@.E o U cXgXL.",
"> 1.OX@X@X#X+._ R 5 4 R ( R ~ n.N.m.m.m.F.m.F.D.C.H C v o , | T.T.@.E o Y BXL.L.",
"1 8.OX@X@X@X@X2.4 Q X.| ! ( ` Q n.m.m.m.F.m.m.m.F.F.N.d > 4 ; ; Q X.R . Y NX9XK.",
"p F 1..X@X@X@X7 -   ; i a Q _ _ Q I.n.m.m.m.m.m.F.G.f > 8 9 9 8 4 : O = Y NX9X<X",
"` > <.1. X X9.> A D a n.Z.n.~ ' ) [ ` } I.I.(.(.(.I.p : 8 9 9 9 9 9 8 q Y NXgXK.",
"o.E 7 <.<.1 o Y aXbXpXY f d b.g G ( ] ] o.W.}.|.E...s y i p 9 9 9 9 8 q Y NXaXK.",
"=X@.W 3 1   k iXnXNXNXaXT D f B.Z G s G L Q.Q.S.K S B.Z.J , 8 9 9 9 8 7 Y VXvXK.",
"%X=XR.| -   U eXiXcXbXBXnXaXrXf c.B.Z C C m m N C H D.m.N.f > > q 9 8 3 Y NXvXK.",
"K.K.&X].; | 3 V eXrXiXcXBXBXbXuXf e b.C.Z C N C H Z.m.m.c.g 6.~ q : X O Y NXxXwX",
"K.2XmXzXzX^.].5 l U rXrXpXBXNXBXvXrXS c.v.v.D.D.D.N.c.r G !.OXOX9.2.p . D rXtX,X",
"hXgXmXMXmX1XmXhX!.a D I rXiXxXBXNXnXpXD e d v.D.c.r = 2 8.OX@X@XOX9.7 . j rXJ.K.",
"7XL.2XhX9X1XzX8X2X4XE * V eXrXrXbXNXNXBXpXU + ; ; ; , F 1.r..X$X X8.7 . k tXJ.K.",
"L.K.K.hXzX2XK.K.gX/.E O < l eXtXrXcXBXNXbXe.W T.T.@.Q 7 <.<.<.F 7 W I.d S U G.L.",
"K.K.K.6X1XK.1X&X{.X.a z <.<.l j eXeXyXcXcXT W T.@.W < z x x x p R (.=X*X%X%XK.K.",
"K.K.K.K./.).].~./ , 4 7 z z 1 . @ j U D D l , ~ i   O O O X X O i ^ ....>X:X:X:X",
"L.L.].{ ~ ~ ~ 2 o O O X X O . @ @ o @ @ @ @ # # @   O 4 8 6 6 5 < @ h t ~ ~ ~ L.",
"qX%Xs # h h h o O q R R 6 q o # h h h h # h # # # @ @ * 2 2 2 2 * # h h h h h K.",
"5X:X{ l h h h # $ 2 2 3 2 2 @ # h h h h # # # h h h h h h h h # # # # h h S Z.3X",
"qX:X^.R.R.O.@.i 2 j & e j & & & & & & * S h & & & & & & l e j & j & y ~ *XL.L.dX"
};
