/* XPM */
static char *result[] = {
/* columns rows colors chars-per-pixel */
"40 40 233 2 ",
"   c #271B1D",
".  c #2B1E22",
"X  c #261D23",
"o  c #371E26",
"O  c #2A2429",
"+  c #3C2225",
"@  c #372828",
"#  c #252730",
"$  c #292C36",
"%  c #28323D",
"&  c #2E3130",
"*  c #33393D",
"=  c #3E3D3F",
"-  c #373538",
";  c #36302F",
":  c #31201D",
">  c #442A1F",
",  c #462A25",
"<  c #572D28",
"1  c #493427",
"2  c #573528",
"3  c #492A34",
"4  c #552B38",
"5  c #483839",
"6  c #563937",
"7  c #663926",
"8  c #773B2B",
"9  c #673839",
"0  c #733431",
"q  c #7D3833",
"w  c #753C36",
"e  c #632F2D",
"r  c #461E35",
"t  c #3B4A36",
"y  c #3B683D",
"u  c #5A4439",
"i  c #4F5033",
"p  c #69452B",
"a  c #764426",
"s  c #6B4935",
"d  c #654737",
"f  c #724638",
"g  c #7A543A",
"h  c #67563B",
"j  c #456639",
"k  c #4C7237",
"l  c #566E32",
"z  c #70753A",
"x  c #283440",
"c  c #3D3B50",
"v  c #413F52",
"b  c #4D3744",
"n  c #6C3B43",
"m  c #713E45",
"M  c #732453",
"N  c #2E4C49",
"B  c #2E524E",
"V  c #395548",
"C  c #2F5854",
"Z  c #2F5652",
"A  c #315B54",
"S  c #3D5A53",
"D  c #384850",
"F  c #366652",
"G  c #3B6D4C",
"H  c #554746",
"J  c #495748",
"K  c #4A475A",
"L  c #544F5D",
"P  c #555452",
"I  c #7C464B",
"U  c #71524B",
"Y  c #437C4C",
"T  c #456C4D",
"R  c #766C49",
"E  c #677349",
"W  c #757647",
"Q  c #6B6E50",
"!  c #545879",
"~  c #4D4D68",
"^  c #696368",
"/  c #76747B",
"(  c #84422D",
")  c #8B4C29",
"_  c #93532A",
"`  c #9A552B",
"'  c #954631",
"]  c #9B4A30",
"[  c #895838",
"{  c #945736",
"}  c #8A4E2F",
"|  c #A54E2E",
" . c #A84F2F",
".. c #AB512F",
"X. c #A85C2A",
"o. c #A54D33",
"O. c #A85533",
"+. c #B75B34",
"@. c #9D6134",
"#. c #8B6F37",
"$. c #B8652C",
"%. c #BA6436",
"&. c #AA6D37",
"*. c #C76C2D",
"=. c #CF722E",
"-. c #C36637",
";. c #D36D33",
":. c #C57536",
">. c #DF7C34",
",. c #D57434",
"<. c #D5732E",
"1. c #E37A2F",
"2. c #EB7E31",
"3. c #E57C35",
"4. c #8D2E5B",
"5. c #9C2A70",
"6. c #9E2E6F",
"7. c #A3366E",
"8. c #B33C67",
"9. c #AC3670",
"0. c #CB3E74",
"q. c #C73975",
"w. c #D33B77",
"e. c #845546",
"r. c #894B54",
"t. c #9B5958",
"y. c #95564D",
"u. c #A65058",
"i. c #986848",
"p. c #867747",
"a. c #8F644C",
"s. c #AA7447",
"d. c #A86856",
"f. c #B77854",
"g. c #AD694E",
"h. c #B44669",
"j. c #BA556C",
"k. c #947B7C",
"l. c #B96964",
"z. c #DD515E",
"x. c #C95257",
"c. c #C87852",
"v. c #E76C4E",
"b. c #CD4766",
"n. c #D65074",
"m. c #ED4C76",
"M. c #E34576",
"N. c #F44C78",
"B. c #F34D76",
"V. c #FD5377",
"C. c #F75076",
"Z. c #EE566F",
"A. c #C9686E",
"S. c #CF736B",
"D. c #F46973",
"F. c #54893B",
"G. c #5A993D",
"H. c #4D843D",
"J. c #6D913B",
"K. c #5FA33D",
"L. c #64A43E",
"P. c #63AB3F",
"I. c #69A33E",
"U. c #4A8848",
"Y. c #568845",
"T. c #4E9147",
"R. c #5A9C43",
"E. c #589345",
"W. c #708D45",
"Q. c #5DA342",
"!. c #61A840",
"~. c #6DA343",
"^. c #74A941",
"/. c #88923B",
"(. c #AA9B3E",
"). c #C7823C",
"_. c #D7903B",
"`. c #E88536",
"'. c #F58432",
"]. c #FA8633",
"[. c #FF8932",
"{. c #F58834",
"}. c #DBA03F",
"|. c #EAA83F",
" X c #868549",
".X c #9A8840",
"XX c #B39548",
"oX c #B88F46",
"OX c #8EAE40",
"+X c #AFAF41",
"@X c #BE8271",
"#X c #C8885B",
"$X c #E89342",
"%X c #D0B241",
"&X c #EEB341",
"*X c #E4B441",
"=X c #EEAC41",
"-X c #D88C66",
";X c #DB9264",
":X c #CB8E71",
">X c #E1876F",
",X c #EB9C6A",
"<X c #E59768",
"1X c #F4926F",
"2X c #FDAD6F",
"3X c #F4A46B",
"4X c #F1A36F",
"5X c #575C81",
"6X c #5D648B",
"7X c #6C7195",
"8X c #747AA0",
"9X c #7B81A5",
"0X c #94948E",
"qX c #868AAA",
"wX c #9698AC",
"eX c #9DA1BC",
"rX c #B1B1B8",
"tX c #AC8D80",
"yX c #DAB99D",
"uX c #EFB58B",
"iX c #F4C698",
"pX c #F0D5B3",
"aX c #B6BECC",
"sX c #B4B5C7",
"dX c #ACAFC7",
"fX c #BDC3D0",
"gX c #C9CAD7",
"hX c #CCCDD9",
"jX c #F8E5C2",
"kX c #EFF4DB",
"lX c #DCDCE5",
"zX c #D6D7E2",
"xX c #E0E0E8",
/* pixels */
"[.[.[.[.[.[.[.[.[.[.[.[.[.[.[.[.[.{.{.{.].`.s.R R R R R R R R R R p.:.'.[.[.[.[.",
"[.[.[.[.[.[.[.[.[.[.[.[.[.[.[.[.{.`.R R W W.W.E. XXXXXXXoXXXXXXXXXoX#X2.].].[.[.",
"[.[.[.[.[.[.[.[.[.[.[.[.[.'.`.).E Y.R.K.!.~.+X%X*X&X&X|.,.h.h.h.h.8.8.8.8.8.x.].",
"[.[.[.[.[.[.[.[.[.[.[.[.`.oXE Y.R.Q.P.P.^.+X*X&X|.=Xv.D.Z.B.m.m.B.m.m.N.M.M.z.[.",
"[.[.[.[.[.[.[.[.[.[.[.`..XQ.!.!.!.!.P.OX}.|.&X$Xv.V.V.V.V.V.V.V.V.V.C.M.w.z.[.].",
"[.[.[.[.[.[.[.[.[.].). XQ.!.!.!.P.!.P.}.*X|.v.v.N.N.V.V.V.V.V.V.V.V.V.C.M.b.3.].",
"[.[.[.[.[.[.[.[.[.).W.!.!.!.!.!.!.R.W oX}.v.v.V.N.M.M.N.C.V.V.V.V.V.V.C.N.M.b.v.",
"[.[.[.[.[.[.[.[.[.p.E.!.!.!.Q.T.Y T O...O.z.V.V.C.M.j.n.n.w.w.b.0.0.0.q.w.V.N.M.",
"[.[.[.[.[.[.[.[.&.W.Q.Q.R.U.G F C J { o.u.0.N.V.D.1X<X,XA.h.6.6.6.6.6.7.h.b.q.8.",
"[.[.[.[.[.[.[.[.W E.T.U.G F A A C V ] o.6.6.h.n.f.f s a.<X<X-X>X>X>Xc.y.3 r 3 0 ",
"[.[.[.[.[.[.[.[.p V F C Z Z Z A B $ 1 < e 4.9.l.d.O O > u [ ;X2X3X<Xi.1 X o 2 *.",
"[.[.[.[.[.[.[.[.p t B Z Z Z Z A N - f.#X#Xh.9.A.4X:X7X@   . 6 t.@Xa.; > s i.7 '.",
"[.[.[.[.[.[.[.[.`.a @ ; t N N B A N 6 e.t.S.A.A.3XuXrX7XO , m t.:X@XL @ g s.7 '.",
"[.[.[.[.[.[.[.[.[.[.[.'.X.> > ; N N N & r.#XS.A.3XiXkXrXJ b I d.:XyX0XJ a.f.7 '.",
"[.[.[.[.[.[.[.[.[.[.[.[.[.[.'.<.a 2 * ; r.A.D.N.D.uXjXjXjXyX:Xl.@XyXjXjXiXf.7 '.",
"[.[.[.[.[.[.[.[.[.[.[.[.[.'.<.;.;.$.< o M 4.8.Z.D.4X2X2X;XoX@X<X2X2X2X2X,Xi.7 ].",
"[.[.[.[.[.[.[.[.[.;.-.%.%...' ' ' ' ( e 4 - b 4.8.y.;X4X#Xi.a.d.;X2X2X<Xd.n 0 O.",
"[.[.[.].[.[.[.-.+.| ' ' ] ] | ........' h G D 3 4 6 f d.-X2X,X#X;X;Xd.f 3 + 9 $.",
"[.[.].].2...O.] | | ........X.......| } J.R.G V H r.m n 6 d d s p a _ $.$.$.*.].",
"'.'.].2.g.O.o..... ... . . .| | | o.} J.!.Q.T.F S P r.I H * 1 _ $.*.=.X.p U k.k.",
", , 9 g.,X,X%..... .| ( 7 > > , i J.I.L.P.L.Q.T.G F P U J N 2 *.].[.1._ X P dXgX",
"  , t.,X2X2X3X-...( e < ( O.( } J.G.P.P.P.P.P.P.Q.T.G S N O 2 $.2.[.1.) O ^ zXgX",
"  3 d.,X2X2X2X2X{ < _ =.X.' | ..` J.P.L.P.P.P.P.!.!.L.K.k 1 < , , ` *.a O ^ xXaX",
"a s I t.;X2X2X2Xd     > p g @.| ..X./.J.I.P.P.P.!.!.L.l > 0 q q 0 < + + , ^ xXaX",
"[.X.1 r.t.-X-Xf., H P g z J.J.#.....O.O.#./.OXOXOXOX/.g > 0 q q q q q 0 9 ^ xXaX",
"[.<.} 9 r.r.n . ^ rXgXwXQ j j Y.z U ` X.O.:._.&X&X*X&.h i u f q q q q 0 6 ^ xXaX",
"[.[.1.) 4 4 X c qXgXlXlXrX7XJ j U.T U h U W  X X XR P Y G.k 6 0 q q q 0 9 ^ xXaX",
"[.[.[.'.X.    ~ 6XqXdXhXlXzXrX/ j H.T.G F A C C A F U.R.P.G.l i < e 0 0 4 ^ xXaX",
"[.[.[.[.1.> X.6 K 5X8XqXdXzXzXgX0XJ i H.T.Y F A F Y Q.P.K.F.z a.e.4 , + @ ^ lXaX",
"[.[.[.[.[.1.[.1.7 5 ~ 6X8XeXhXlXlXaX7XJ F.G.G.Q.Q.Q.K.F.y h #X,X<Xf.O.a X K 8X6X",
"[.[.[.[.[.[.[.[.1.=.[ K ! 7XqXsXhXlXgXwXP t k G.G.G.y @ 5 d.<X2X2X,Xf.6 X c 7X5X",
"[.[.[.[.[.[.[.[.[.[.1.) % K 6X7X9XgXlXxXlXwXK : > @ , 6 I t.f.;X,X-Xg.9 X c 7X! ",
"[.[.[.[.[.[.[.[.[.[.'.) @ 3 H ! 6X8XsXhXlXhXk.) '.[.`._ 9 r.r.r.r.f ) ` 1 - ! P ",
"[.[.[.[.[.[.[.[.[.].*.( w r.r.5 c 5X8XqXdXdX/ [ '.1._ , n m m m 9 ( $.'.$.a a _ ",
"[.[.[.[.[.[.[.[.&.} 2 4 9 n 9 4 X $ v D ~ L b 2 { p   + + o + O @ p { @.%.[.[.[.",
"[.[.[.`.#.[ [ { 5 . o + o o o X # # # # # # # $ % $   + , 0 8 0 7 1 % x H [ [ [ ",
"[.[.,.h * x x x O + 7 a ( ( 7 O % % x x x x % % % % $ % - 5 6 u 5 - $ x x x % % ",
"[.[.'.@.5 x x x % $ 5 5 5 b 5 $ % % x x x x % % x x % % x x x x x x x x x x c x ",
"[.[.[.'.`.>.>.>.s b = = = = c = = = = = t c c = c * = = = = = = b D - i [ 3.>.>.",
"[.[.[.[.].[.[.[.>.`.>.>.>.>.>.1.>.>.>.>.>.>.>.>.1.`.1.>.>.>.>.>.>.>.1.`.2.[.[.[."
};
