/* XPM */
static char *wood_xpm[] = {
"32 32 3 1",
" 	c None",
".	c #8B5A2B", /* Wood color */
"+	c #A0522D", /* Darker wood color */
"                                ",
"                                ",
"                                ",
"                                ",
"                                ",
"  . . . . . . . . . . . . . . . ",
"  . + + + + + + + + + + + + + . ",
"  . + . . . . . . . . . . + . . ",
"  . + . + + . + . + + . + . + . ",
"  . + . + . + . . . . . + . + . ",
"  . + . + + . + . + . . . + . + ",
"  . + . . . . + . . + . . . + . ",
"  . + . + . + . . . . . + . + . ",
"  . + . + . . . . + . + . + . . ",
"  . + . . . . . . . . + . + . . ",
"  . + . + . . + . . . . . + . . ",
"  . + . + . . . . . + . + . + . ",
"  . + . + . + . . . . . + . + . ",
"  . + . . . . . . . + . . . + . ",
"  . + . + + . . . . . . + . + . ",
"  . + . + . + . . . . + . + . + ",
"  . + . + . . . . . . + . + . + ",
"  . + . . . . . . . + . . . + . ",
"  . + . + . + . . . . . . . + . ",
"  . + . + . . . . + . . . + . + ",
"  . + . + + . . . . . + . + . . ",
"  . + . . . . + . . . . . + . . ",
"  . + . + . . . . . + . . . + . ",
"  . + . + . + . . . . . . . + . ",
"  . + . . . . . . . . . + . + . ",
"  . + . + + . . . . + . . . + . ",
"  . + . + . . . . . + . + . . . ",
"  . + . + . . . + . . . . + . . ",
"  . . . . . . . . . . . . . . . ",
"                                ",
"                                ",
"                                "
};
