/* XPM */
static char *result[] = {
/* columns rows colors chars-per-pixel */
"40 40 181 2 ",
"   c #0F0C08",
".  c #0A0905",
"X  c #130D09",
"o  c #16110B",
"O  c #1B130D",
"+  c #1B1611",
"@  c #1E1914",
"#  c #20160F",
"$  c #211711",
"%  c #241B14",
"&  c #2A1E16",
"*  c #251E19",
"=  c #2A1F19",
"-  c #2E200C",
";  c #2C2012",
":  c #26211B",
">  c #2C221B",
",  c #33261D",
"<  c #35281E",
"1  c #39291F",
"2  c #3A2A14",
"3  c #3D391A",
"4  c #2E2721",
"5  c #2D2824",
"6  c #2D2B29",
"7  c #312720",
"8  c #352B23",
"9  c #3B2D23",
"0  c #342F28",
"q  c #3E3127",
"w  c #36312A",
"e  c #3C332B",
"r  c #3F3D2F",
"t  c #3A3732",
"y  c #3B3833",
"u  c #442E0F",
"i  c #463317",
"p  c #453C1A",
"a  c #423226",
"s  c #44352B",
"d  c #49362A",
"f  c #46382D",
"g  c #4B3A2D",
"h  c #503C2F",
"j  c #553F26",
"k  c #403730",
"l  c #443B33",
"z  c #4B3D33",
"x  c #523E31",
"c  c #44402A",
"v  c #57422B",
"b  c #4C4136",
"n  c #4D443B",
"m  c #544133",
"M  c #5A4436",
"N  c #52463B",
"B  c #5C4739",
"V  c #54493E",
"C  c #5D4A3C",
"Z  c #5C4837",
"A  c #634C3D",
"S  c #624B32",
"D  c #6C5233",
"F  c #66503E",
"G  c #644828",
"H  c #6D673B",
"J  c #776938",
"K  c #7D7135",
"L  c #474544",
"P  c #4D4C4C",
"I  c #554B41",
"U  c #5A4D42",
"Y  c #5C5146",
"T  c #5C524A",
"R  c #5B594E",
"E  c #5D5D5D",
"W  c #5E5A51",
"Q  c #664F40",
"!  c #645243",
"~  c #6D5443",
"^  c #6E5847",
"/  c #635549",
"(  c #68574A",
")  c #65594E",
"_  c #6C5C4E",
"`  c #705746",
"'  c #735946",
"]  c #755B4A",
"[  c #795E4C",
"{  c #665B50",
"}  c #6B5E52",
"|  c #71604F",
" . c #7D624D",
".. c #7C7543",
"X. c #6E6153",
"o. c #736354",
"O. c #746659",
"+. c #766A5C",
"@. c #7C6B5D",
"#. c #7F6654",
"$. c #76735E",
"%. c #7B6E61",
"&. c #776C60",
"*. c #7E7163",
"=. c #767360",
"-. c #7A7A7A",
";. c #886236",
":. c #92683A",
">. c #AD6C32",
",. c #AF7D3F",
"<. c #F16521",
"1. c #81654F",
"2. c #826651",
"3. c #856953",
"4. c #8A6C56",
"5. c #816D5D",
"6. c #8B6E59",
"7. c #89715D",
"8. c #81705E",
"9. c #91725B",
"0. c #857464",
"q. c #897666",
"w. c #897867",
"e. c #8C7B6B",
"r. c #937963",
"t. c #917F6D",
"y. c #9B7A60",
"u. c #847D75",
"i. c #927F70",
"p. c #B4813F",
"a. c #BC903F",
"s. c #F48236",
"d. c #F48438",
"f. c #92816F",
"g. c #8F8171",
"h. c #84847F",
"j. c #948372",
"k. c #998775",
"l. c #9B8976",
"z. c #9D8C79",
"x. c #978875",
"c. c #A18F7C",
"v. c #A3927E",
"b. c #B1A760",
"n. c #BDB369",
"m. c #D39741",
"M. c #D39842",
"N. c #F79947",
"B. c #F79A48",
"V. c #CBA341",
"C. c #D2A941",
"Z. c #DFB743",
"A. c #DEBC43",
"S. c #E0B743",
"D. c #F8A752",
"F. c #F9B75E",
"G. c #C9BE6D",
"H. c #E8D044",
"J. c #DFD278",
"K. c #E1D379",
"L. c #EBDE7F",
"P. c #FDDE7C",
"I. c #878783",
"U. c #A59481",
"Y. c #A89682",
"T. c #AC9A86",
"R. c #AD9C89",
"E. c #B2A18F",
"W. c #A5A6A7",
"Q. c #A7A8A9",
"!. c #ABACAD",
"~. c #B3B3B4",
"^. c #B7B8BA",
"/. c #FEE681",
"(. c #FEE883",
"). c #FFF08A",
"_. c #C6C7C9",
"`. c #C9CACC",
"'. c #C5C6C8",
"]. c #CFD0D2",
"[. c #D2D3D5",
/* pixels */
"j.5.C q.z.i.I , 8 a g ~ 1.d d [ [ [ ~ & ` x > s [ , 3.[ [ [ [ [ 8 Q 3.[ [ [ [ [ ",
"~ d & 8 w.| l ~ [ [ [ [ ~ = s 1.[ [ M O + Q C , > * [ [ [ [ [ ' $ < ' [ [ [ ] d ",
"& X = x a = 9 [ [ [ [ [ ' x a [ ~ ~ 9 x % M s & ~ N & , 9 g g > X x x ~ ` a a o ",
"8 , ` ~ ~ g O z ~ ! Q M h =   $ $ $ 8 k 0 a 9 8 9 9 , d 8 @.+.+.+.+.N 9 a % h > ",
"] * n n l n n n k 0 l z I N l z [ a q.r.9.2.Q M ' [ 2.A s U.v.v.U.c.O.] 1.1.[ [ ",
"[ s z.c.c.U.U.k./ / z.U.v.v.e.O & O %.[ [ [ ` d 1 8 1 ; + / 5.@.5.@.I x A x 2.[ ",
"] 8 V V m U z > O n 0.z.x.t.C N ` 7 @.[ [ [ ] ' Z z g.*.%.+.O.X.} } { l & $ A [ ",
"~ & %.x.j.k.e.q.e.} 9 z 7 > w Y T 0 0.[.[.P L [ Q I v.v.U.U.z.z.I 5.3.#.[ A * [ ",
"& O 8 9 %.c.v.Y.j.c.t.> i.x.T.U.v.A [.h.c L.H | Q N v.v.v.c.7.N s ! [ [ [ d X a ",
"q '  .A s k.c.c.j.j.s 0 z.c.U.U.f.[.-.b.).K.$.`.m l c.v.v.v.0.% 4.[ [ [ [ 9 9   ",
"9 $ O > $ ( X.X.n + n I n v.U.z.].h.n.).).J.-.[.s l v.v.v.U.0.> M ~ x x d % s Q ",
"g 2.' ] ~ ~ Q ~ 9 @ z.o.> q.z.[.^.H L.P.P.J.$.`.[.l z.c.j.z.7.% M M A x h % ~ Q ",
"C  .] [ ] [ [ [ s e.U.c.I 9 z [.W J.(.D.).).J.W ].9 +.#./ Q / = 4.[ [ ] s g F h ",
"+ 1.[ [ [ [ [ ' = 8.U.c.U +.x.[.r ).s.s.P.).).J.E [.m N g 9 > , 1 8 , S x A S F ",
"C 2.[ [ [ [ [ A X $ 5.o.O = } [.r ).s.<.d.D.).J.E [.1. . .a [ [ [ [ x   7 d [ [ ",
"s F ] C ` B x 7 s z x s > *.U.[.~.K N.<.<.<.F.b `.[. . .' 9  .[ [ x = * 3.1. .[ ",
"1 9 8 , 9 , $ | ] A [ M 8 c.[.[.'.$.K.B.<.<.>.h.[.[.A g 1 8 f s M & % Q 8 ] [ ~ ",
"' ' m m M < ; , > & d = % t !.5 0 > 3 p u u - 1 w 5 5 T U I N V I k x Q x , 1 $ ",
"g O 7 * l @.V @.j.j.q.5.+.Q ^.I ;.p.A.H.H.H.V.p.;.R X.v.v.x.f.x.c.t.I > 9 } ) / ",
"@ f @.> _ o.b > / Q 9 X./ 9 [.^.8 g D D D D Z 9 T _.].b z @ , 9 V k z V z.v.x.j.",
"U.z.z.V + F C A A ~ A A A A [.{ % v K K K K J j o W.[.0 ' ' % C ^ ^ z q.v.U.v.v.",
"j.z.v.0.% A Z C B m S [ [ [ [.Q.f :.C.Z.Z.Z.a.:.T '.[.z ' ' 8 [  .[ s ) v.U.v.v.",
"l.x.v.z.w m F F A C = ~ [ ` ' [.~.w @ ; ; $ > n `.[.z.7 1 d s [ ` a X 8 c.r.z.v.",
"Z  .^ Y $ ]  .[ [ ] m * = $ = X [.[.I.G ,.b Q.[.[.c.@.* / l g A > e e.} b  . . .",
"O m X . , ]  .] ' x F a x *.%.%.@.[.`.i m.t [.[.g @.z w l.z.Y = 7 R.v.v.0.q > 9 ",
"0.% / x.} = > % O O O O l e.O./ 0.[.`.i m.y [.e./ t R T 5.v.q./ * z.v.v.v.z.9 9 ",
"N * %.l.c.t.l 1.4.[ 4.X.8 U Y Y T [.`.i m.y [.l.] { v.@.k.x.t./ s k c.c.v.v.e.C ",
"j.I 4 j.l.c.V ' [ [ ] ^ ~ 3.] 7.5.@.`.i m.y [.@.+ e n l e z / e a < 8 U.v.v.q.g ",
"} I @ 0.v.c.I [ [ [ [ [ [ [ x O > % `.i M.y / Y I U.x.0.O.s %.+.} , O q.q.e.~ x ",
"@.o.4 9 t.t.z ` [ [ [ [ [ ' x O x.c.`.i M.y ( n V ) I % q X.R.U.k.e.@ = $ $ % O ",
"z C A m + 9 > A ` A x Q 1 S h o 9 w `.i M.y [.x.v.U.k.l c.z.v.U.v.t.0 % # O O O ",
"z A [ ` C 1 % , > ; , & % = = + +.R.`.i M.y [.v.v.) n w I X.z.v.j.z < 3.3.[ 1.` ",
"f.m z 9 b r : ] 3. . .` 3.y.6.A + U `.i m.t [.o.j.t.v.j.z.4 o.k./ + 2.' 2.[ [ ! ",
"z./ l e.T.R.Y ^ [ A 8 s  .[ ] A A [.[.u.2 W.[.{ > N V s s > * 7 % l l g Q ` [ ` ",
"0 % U.U.v.v.I < a + + Q [ [ ] [ ] < % t.T.v.U.q./ 6.2.3. .` : R.T.v.U.O.O % > = ",
"E.{ z.U.v.v.U d d , _ 6.[ [ [ [ ] % %.w.c.U.c.j.l B [ [ ] ^ O j.q.q.v.j.V E.R.T.",
"c.V z.U.U.z.I F A 9 Q ' ` ` [ ` ` , T t.q.O.j.o.o 1.[ [ [ [ C 9 I / T N e _ j.z.",
"7.< e.U.U.c.V q d 7 , 9 7 % + 4 w : , I > > 8 >   [ [ [ [ [ ' e o./ } X.) e 9 I ",
"] , g m q.v.V 3.9.2.4.4.3.x 5 z.T.x.l 0.U.U.v.0.q ' ` ` ~ ~ g I g.g.j.j.j.N z A ",
"A % I e , w > ` [ [ [ ' A x I U.v.v.X.I 8 T e 5 l l 7 T T U l z.U.v.v.v.q.> ] B "
};
